<mxfile host="app.diagrams.net" modified="2024-06-05T16:02:00.494Z" agent="Mozilla/5.0 (Windows NT 10.0; Win64; x64) AppleWebKit/537.36 (KHTML, like Gecko) Chrome/125.0.0.0 Safari/537.36 Edg/125.0.0.0" etag="QMQ7Nh1x-OsM5AHba_CN" version="24.4.14" type="device">
  <diagram name="Page-1" id="Fmsnwh_GB8n5a-hDfCT3">
    <mxGraphModel dx="1386" dy="793" grid="1" gridSize="10" guides="1" tooltips="1" connect="1" arrows="1" fold="1" page="1" pageScale="1" pageWidth="850" pageHeight="1100" math="0" shadow="0">
      <root>
        <mxCell id="0" />
        <mxCell id="1" parent="0" />
        <mxCell id="IGEThCHEhvGlLkRtF7x6-1" value="Admin" style="shape=umlActor;verticalLabelPosition=bottom;verticalAlign=top;html=1;outlineConnect=0;rounded=1;" parent="1" vertex="1">
          <mxGeometry x="100" y="340" width="30" height="60" as="geometry" />
        </mxCell>
        <mxCell id="IGEThCHEhvGlLkRtF7x6-2" value="Mengisi data kunjungan" style="ellipse;whiteSpace=wrap;html=1;rounded=1;" parent="1" vertex="1">
          <mxGeometry x="400" y="280" width="90" height="60" as="geometry" />
        </mxCell>
        <mxCell id="IGEThCHEhvGlLkRtF7x6-3" value="Tampilkan kartu tamu Mabes al,&lt;div&gt;dan nomor kunjungan&lt;/div&gt;" style="ellipse;whiteSpace=wrap;html=1;rounded=1;" parent="1" vertex="1">
          <mxGeometry x="390" y="175.95" width="105" height="70" as="geometry" />
        </mxCell>
        <mxCell id="IGEThCHEhvGlLkRtF7x6-6" value="" style="endArrow=classic;html=1;rounded=1;exitX=0.5;exitY=0;exitDx=0;exitDy=0;entryX=0.5;entryY=1;entryDx=0;entryDy=0;dashed=1;" parent="1" source="IGEThCHEhvGlLkRtF7x6-2" target="IGEThCHEhvGlLkRtF7x6-3" edge="1">
          <mxGeometry width="50" height="50" relative="1" as="geometry">
            <mxPoint x="318" y="315.95" as="sourcePoint" />
            <mxPoint x="368" y="265.95" as="targetPoint" />
          </mxGeometry>
        </mxCell>
        <mxCell id="IGEThCHEhvGlLkRtF7x6-7" value="&amp;lt;&amp;lt;include&amp;gt;&amp;gt;" style="edgeLabel;html=1;align=center;verticalAlign=middle;resizable=0;points=[];rounded=1;" parent="IGEThCHEhvGlLkRtF7x6-6" vertex="1" connectable="0">
          <mxGeometry x="0.0589" y="-2" relative="1" as="geometry">
            <mxPoint y="-1" as="offset" />
          </mxGeometry>
        </mxCell>
        <mxCell id="IGEThCHEhvGlLkRtF7x6-8" value="Langsung mengisi data kunjungan tanpa login&amp;nbsp;" style="ellipse;whiteSpace=wrap;html=1;rounded=1;" parent="1" vertex="1">
          <mxGeometry x="220" y="245.95" width="90" height="70" as="geometry" />
        </mxCell>
        <mxCell id="IGEThCHEhvGlLkRtF7x6-10" value="Keluar" style="ellipse;whiteSpace=wrap;html=1;rounded=1;" parent="1" vertex="1">
          <mxGeometry x="490" y="90" width="75" height="50" as="geometry" />
        </mxCell>
        <mxCell id="IGEThCHEhvGlLkRtF7x6-13" value="" style="endArrow=classic;html=1;rounded=0;entryX=0.987;entryY=0.378;entryDx=0;entryDy=0;entryPerimeter=0;dashed=1;" parent="1" source="IGEThCHEhvGlLkRtF7x6-10" target="IGEThCHEhvGlLkRtF7x6-3" edge="1">
          <mxGeometry width="50" height="50" relative="1" as="geometry">
            <mxPoint x="560.9000000000001" y="89.99999999999996" as="sourcePoint" />
            <mxPoint x="400" y="115.95" as="targetPoint" />
          </mxGeometry>
        </mxCell>
        <mxCell id="IGEThCHEhvGlLkRtF7x6-14" value="&amp;lt;&amp;lt;extend&amp;gt;&amp;gt;" style="edgeLabel;html=1;align=center;verticalAlign=middle;resizable=0;points=[];" parent="IGEThCHEhvGlLkRtF7x6-13" vertex="1" connectable="0">
          <mxGeometry x="-0.0069" y="1" relative="1" as="geometry">
            <mxPoint x="12" y="-6" as="offset" />
          </mxGeometry>
        </mxCell>
        <mxCell id="88wqEb-GOLQgcsY3DgQC-1" value="" style="endArrow=none;html=1;rounded=0;entryX=0;entryY=0.5;entryDx=0;entryDy=0;" parent="1" target="IGEThCHEhvGlLkRtF7x6-8" edge="1">
          <mxGeometry width="50" height="50" relative="1" as="geometry">
            <mxPoint x="120" y="330" as="sourcePoint" />
            <mxPoint x="450" y="380" as="targetPoint" />
          </mxGeometry>
        </mxCell>
        <mxCell id="MLU2V3QKFiQ-VihSslrR-2" value="" style="endArrow=classic;html=1;rounded=1;exitX=1;exitY=0.5;exitDx=0;exitDy=0;dashed=1;" parent="1" source="IGEThCHEhvGlLkRtF7x6-8" target="IGEThCHEhvGlLkRtF7x6-3" edge="1">
          <mxGeometry width="50" height="50" relative="1" as="geometry">
            <mxPoint x="282" y="271.5" as="sourcePoint" />
            <mxPoint x="380" y="268.5" as="targetPoint" />
          </mxGeometry>
        </mxCell>
        <mxCell id="MLU2V3QKFiQ-VihSslrR-3" value="&amp;lt;&amp;lt;include&amp;gt;&amp;gt;" style="edgeLabel;html=1;align=center;verticalAlign=middle;resizable=0;points=[];rounded=1;" parent="MLU2V3QKFiQ-VihSslrR-2" vertex="1" connectable="0">
          <mxGeometry x="0.0589" y="-2" relative="1" as="geometry">
            <mxPoint y="-1" as="offset" />
          </mxGeometry>
        </mxCell>
        <mxCell id="MLU2V3QKFiQ-VihSslrR-5" value="Mengubah informasi profil" style="ellipse;whiteSpace=wrap;html=1;rounded=1;" parent="1" vertex="1">
          <mxGeometry x="405" y="344.87" width="90" height="60" as="geometry" />
        </mxCell>
        <mxCell id="MLU2V3QKFiQ-VihSslrR-7" value="Login" style="ellipse;whiteSpace=wrap;html=1;rounded=1;" parent="1" vertex="1">
          <mxGeometry x="225" y="320" width="90" height="60" as="geometry" />
        </mxCell>
        <mxCell id="MLU2V3QKFiQ-VihSslrR-8" value="Buat akun" style="ellipse;whiteSpace=wrap;html=1;rounded=1;" parent="1" vertex="1">
          <mxGeometry x="230" y="390" width="80" height="50" as="geometry" />
        </mxCell>
        <mxCell id="MLU2V3QKFiQ-VihSslrR-9" value="" style="endArrow=none;html=1;rounded=0;entryX=0.011;entryY=0.4;entryDx=0;entryDy=0;entryPerimeter=0;" parent="1" target="MLU2V3QKFiQ-VihSslrR-8" edge="1">
          <mxGeometry width="50" height="50" relative="1" as="geometry">
            <mxPoint x="140" y="380" as="sourcePoint" />
            <mxPoint x="230" y="365" as="targetPoint" />
            <Array as="points" />
          </mxGeometry>
        </mxCell>
        <mxCell id="MLU2V3QKFiQ-VihSslrR-10" value="Melihat riwayat kunjungan" style="ellipse;whiteSpace=wrap;html=1;rounded=1;" parent="1" vertex="1">
          <mxGeometry x="405" y="414.87" width="90" height="60" as="geometry" />
        </mxCell>
        <mxCell id="MLU2V3QKFiQ-VihSslrR-12" value="" style="endArrow=classic;html=1;rounded=1;entryX=0;entryY=0.5;entryDx=0;entryDy=0;dashed=1;" parent="1" target="MLU2V3QKFiQ-VihSslrR-5" edge="1">
          <mxGeometry width="50" height="50" relative="1" as="geometry">
            <mxPoint x="310" y="350" as="sourcePoint" />
            <mxPoint x="419" y="323" as="targetPoint" />
          </mxGeometry>
        </mxCell>
        <mxCell id="MLU2V3QKFiQ-VihSslrR-13" value="&amp;lt;&amp;lt;include&amp;gt;&amp;gt;" style="edgeLabel;html=1;align=center;verticalAlign=middle;resizable=0;points=[];rounded=1;" parent="MLU2V3QKFiQ-VihSslrR-12" vertex="1" connectable="0">
          <mxGeometry x="0.0589" y="-2" relative="1" as="geometry">
            <mxPoint y="-1" as="offset" />
          </mxGeometry>
        </mxCell>
        <mxCell id="MLU2V3QKFiQ-VihSslrR-14" value="" style="endArrow=classic;html=1;rounded=1;dashed=1;exitX=1;exitY=0.5;exitDx=0;exitDy=0;entryX=0.067;entryY=0.317;entryDx=0;entryDy=0;entryPerimeter=0;" parent="1" source="MLU2V3QKFiQ-VihSslrR-7" target="MLU2V3QKFiQ-VihSslrR-10" edge="1">
          <mxGeometry width="50" height="50" relative="1" as="geometry">
            <mxPoint x="340" y="500" as="sourcePoint" />
            <mxPoint x="450" y="540" as="targetPoint" />
          </mxGeometry>
        </mxCell>
        <mxCell id="MLU2V3QKFiQ-VihSslrR-15" value="&amp;lt;&amp;lt;include&amp;gt;&amp;gt;" style="edgeLabel;html=1;align=center;verticalAlign=middle;resizable=0;points=[];rounded=1;" parent="MLU2V3QKFiQ-VihSslrR-14" vertex="1" connectable="0">
          <mxGeometry x="0.0589" y="-2" relative="1" as="geometry">
            <mxPoint y="-1" as="offset" />
          </mxGeometry>
        </mxCell>
        <mxCell id="MLU2V3QKFiQ-VihSslrR-16" value="" style="endArrow=classic;html=1;rounded=1;exitX=1;exitY=0.5;exitDx=0;exitDy=0;entryX=0.044;entryY=0.367;entryDx=0;entryDy=0;dashed=1;entryPerimeter=0;" parent="1" source="MLU2V3QKFiQ-VihSslrR-7" target="IGEThCHEhvGlLkRtF7x6-2" edge="1">
          <mxGeometry width="50" height="50" relative="1" as="geometry">
            <mxPoint x="495" y="430" as="sourcePoint" />
            <mxPoint x="320" y="425" as="targetPoint" />
          </mxGeometry>
        </mxCell>
        <mxCell id="MLU2V3QKFiQ-VihSslrR-17" value="&amp;lt;&amp;lt;include&amp;gt;&amp;gt;" style="edgeLabel;html=1;align=center;verticalAlign=middle;resizable=0;points=[];rounded=1;" parent="MLU2V3QKFiQ-VihSslrR-16" vertex="1" connectable="0">
          <mxGeometry x="0.0589" y="-2" relative="1" as="geometry">
            <mxPoint x="5" y="4" as="offset" />
          </mxGeometry>
        </mxCell>
        <mxCell id="MLU2V3QKFiQ-VihSslrR-20" value="Lupa password" style="ellipse;whiteSpace=wrap;html=1;rounded=1;" parent="1" vertex="1">
          <mxGeometry x="225" y="450" width="90" height="60" as="geometry" />
        </mxCell>
        <mxCell id="MLU2V3QKFiQ-VihSslrR-21" value="" style="endArrow=none;html=1;rounded=0;entryX=0.011;entryY=0.4;entryDx=0;entryDy=0;entryPerimeter=0;" parent="1" target="MLU2V3QKFiQ-VihSslrR-20" edge="1">
          <mxGeometry width="50" height="50" relative="1" as="geometry">
            <mxPoint x="140" y="400" as="sourcePoint" />
            <mxPoint x="230" y="435" as="targetPoint" />
            <Array as="points" />
          </mxGeometry>
        </mxCell>
        <mxCell id="MLU2V3QKFiQ-VihSslrR-24" value="Halaman utama" style="ellipse;whiteSpace=wrap;html=1;rounded=1;" parent="1" vertex="1">
          <mxGeometry x="225" y="190" width="80" height="50" as="geometry" />
        </mxCell>
        <mxCell id="MLU2V3QKFiQ-VihSslrR-25" value="" style="endArrow=none;html=1;rounded=0;entryX=0;entryY=0.5;entryDx=0;entryDy=0;" parent="1" target="MLU2V3QKFiQ-VihSslrR-24" edge="1">
          <mxGeometry width="50" height="50" relative="1" as="geometry">
            <mxPoint x="110" y="330" as="sourcePoint" />
            <mxPoint x="250" y="-5" as="targetPoint" />
            <Array as="points" />
          </mxGeometry>
        </mxCell>
        <mxCell id="MLU2V3QKFiQ-VihSslrR-28" value="" style="endArrow=none;html=1;rounded=0;entryX=0;entryY=0.5;entryDx=0;entryDy=0;" parent="1" target="MLU2V3QKFiQ-VihSslrR-7" edge="1">
          <mxGeometry width="50" height="50" relative="1" as="geometry">
            <mxPoint x="140" y="360" as="sourcePoint" />
            <mxPoint x="241" y="420" as="targetPoint" />
            <Array as="points" />
          </mxGeometry>
        </mxCell>
        <mxCell id="MLU2V3QKFiQ-VihSslrR-29" value="Logout" style="ellipse;whiteSpace=wrap;html=1;rounded=1;" parent="1" vertex="1">
          <mxGeometry x="405" y="484.87" width="90" height="60" as="geometry" />
        </mxCell>
        <mxCell id="MLU2V3QKFiQ-VihSslrR-30" value="" style="endArrow=classic;html=1;rounded=1;dashed=1;exitX=1.022;exitY=0.617;exitDx=0;exitDy=0;entryX=0.044;entryY=0.333;entryDx=0;entryDy=0;entryPerimeter=0;exitPerimeter=0;" parent="1" source="MLU2V3QKFiQ-VihSslrR-7" target="MLU2V3QKFiQ-VihSslrR-29" edge="1">
          <mxGeometry width="50" height="50" relative="1" as="geometry">
            <mxPoint x="294" y="420" as="sourcePoint" />
            <mxPoint x="390" y="499" as="targetPoint" />
          </mxGeometry>
        </mxCell>
        <mxCell id="MLU2V3QKFiQ-VihSslrR-31" value="&amp;lt;&amp;lt;include&amp;gt;&amp;gt;" style="edgeLabel;html=1;align=center;verticalAlign=middle;resizable=0;points=[];rounded=1;" parent="MLU2V3QKFiQ-VihSslrR-30" vertex="1" connectable="0">
          <mxGeometry x="0.0589" y="-2" relative="1" as="geometry">
            <mxPoint y="-1" as="offset" />
          </mxGeometry>
        </mxCell>
        <mxCell id="MLU2V3QKFiQ-VihSslrR-32" value="Membaca berita terbaru" style="ellipse;whiteSpace=wrap;html=1;rounded=1;" parent="1" vertex="1">
          <mxGeometry x="400" y="110" width="75" height="50" as="geometry" />
        </mxCell>
        <mxCell id="MLU2V3QKFiQ-VihSslrR-33" value="" style="endArrow=classic;html=1;rounded=1;exitX=1.013;exitY=0.26;exitDx=0;exitDy=0;entryX=0.04;entryY=0.7;entryDx=0;entryDy=0;dashed=1;entryPerimeter=0;exitPerimeter=0;" parent="1" source="MLU2V3QKFiQ-VihSslrR-24" target="MLU2V3QKFiQ-VihSslrR-32" edge="1">
          <mxGeometry width="50" height="50" relative="1" as="geometry">
            <mxPoint x="305" y="160" as="sourcePoint" />
            <mxPoint x="315" y="235" as="targetPoint" />
          </mxGeometry>
        </mxCell>
        <mxCell id="MLU2V3QKFiQ-VihSslrR-34" value="&amp;lt;&amp;lt;include&amp;gt;&amp;gt;" style="edgeLabel;html=1;align=center;verticalAlign=middle;resizable=0;points=[];rounded=1;" parent="MLU2V3QKFiQ-VihSslrR-33" vertex="1" connectable="0">
          <mxGeometry x="0.0589" y="-2" relative="1" as="geometry">
            <mxPoint y="-1" as="offset" />
          </mxGeometry>
        </mxCell>
        <mxCell id="D6-R1dwiseAg3jH4LOjI-1" value="" style="whiteSpace=wrap;html=1;aspect=fixed;fillColor=none;movable=1;resizable=1;rotatable=1;deletable=1;editable=1;locked=0;connectable=1;" parent="1" vertex="1">
          <mxGeometry x="70" y="45.48000000000002" width="529.05" height="529.05" as="geometry" />
        </mxCell>
        <mxCell id="D6-R1dwiseAg3jH4LOjI-2" value="&lt;font style=&quot;font-size: 11px;&quot;&gt;uc Use Case Pengunjung&lt;/font&gt;" style="shape=card;whiteSpace=wrap;html=1;fillColor=none;flipH=1;size=20;flipV=1;" parent="1" vertex="1">
          <mxGeometry x="70" y="45.48" width="140" height="30" as="geometry" />
        </mxCell>
      </root>
    </mxGraphModel>
  </diagram>
</mxfile>
